<svg width="260" height="162" viewBox="0 0 260 162" fill="none" xmlns="http://www.w3.org/2000/svg">
<g clip-path="url(#clip0_271_518)">
<rect width="260" height="162" fill="black"/>
<path fill-rule="evenodd" clip-rule="evenodd" d="M129.481 36.0946C120.126 44.2554 106.361 51.0755 94.6197 51.0755V86.4843C94.6197 97.795 98.519 106.015 104.67 112.314C110.958 118.755 119.829 123.409 130.01 126.925L130.125 126.966C140.267 123.427 149.114 118.764 155.391 112.324C161.538 106.017 165.437 97.794 165.437 86.4843V51.0755C153.7 51.0755 139.985 44.3097 130.575 36.0942C130.421 35.9675 130.228 35.8981 130.029 35.8981C129.829 35.8981 129.635 35.9676 129.481 36.0946ZM122.898 28.4124C124.886 26.7143 127.414 25.7812 130.029 25.7812C132.643 25.7812 135.171 26.7143 137.159 28.4124L137.203 28.4498L137.202 28.4501C145.496 35.7008 156.954 40.9587 165.437 40.9587C168.12 40.9587 170.694 42.0246 172.591 43.9219C174.488 45.8191 175.554 48.3924 175.554 51.0755V86.4843C175.554 100.466 170.601 111.213 162.636 119.385C154.808 127.416 144.296 132.74 133.413 136.534L133.372 136.548C131.19 137.287 128.823 137.26 126.66 136.471C115.765 132.704 105.256 127.397 97.431 119.382C89.4562 111.215 84.5029 100.466 84.5029 86.4843V51.0755C84.5029 48.3924 85.5688 45.8191 87.4661 43.9219C89.3633 42.0246 91.9366 40.9587 94.6197 40.9587C103.1 40.9587 114.609 35.6536 122.856 28.4487L122.898 28.4124Z" fill="white"/>
<path fill-rule="evenodd" clip-rule="evenodd" d="M130.029 25.7837C132.823 25.7837 135.088 28.0484 135.088 30.8421V132.01C135.088 134.804 132.823 137.069 130.029 137.069C127.235 137.069 124.971 134.804 124.971 132.01V30.8421C124.971 28.0484 127.235 25.7837 130.029 25.7837Z" fill="white"/>
</g>
<defs>
<clipPath id="clip0_271_518">
<rect width="260" height="162" fill="white"/>
</clipPath>
</defs>
</svg>
